<?xml version="1.0" encoding="utf-8"?>
<!-- Svg Vector Icons : http://www.onlinewebfonts.com/icon -->
<!DOCTYPE svg PUBLIC "-//W3C//DTD SVG 1.1//EN" "http://www.w3.org/Graphics/SVG/1.1/DTD/svg11.dtd">
<svg version="1.1" xmlns="http://www.w3.org/2000/svg" xmlns:xlink="http://www.w3.org/1999/xlink" x="0px" y="0px" viewBox="0 0 1000 1000" enable-background="new 0 0 1000 1000" xml:space="preserve">
<metadata> Svg Vector Icons : http://www.onlinewebfonts.com/icon </metadata>
<g><g transform="translate(0.000000,511.000000) scale(0.100000,-0.100000)"><path d="M4759.9,4983.9c-382-92.6-702.3-412.9-791-787.1c-125.4-530.5,165.9-1064.9,681-1250.2l119.6-44.4v-343.4v-345.3H5001h231.5v345.3v343.4l121.5,44.4c611.6,221.9,883.6,910.6,588.4,1493.3c-81,160.1-275.9,358.8-437.9,443.7C5276.9,5003.2,4993.3,5041.8,4759.9,4983.9z M5130.3,4422.5c137-40.5,237.3-121.5,304.8-243.1c198.7-366.6-133.1-804.5-540.2-713.8c-318.3,71.4-484.2,436-326,717.7c69.5,121.5,177.5,204.5,310.6,241.2C5001,4457.2,5014.6,4457.2,5130.3,4422.5z"/><path d="M2074.3,3864.9c-480.4-94.5-852.7-551.8-854.7-1045.7c0-133.1,63.7-372.3,135-507.4c111.9-210.3,337.6-403.2,569.1-488.1c83-28.9,175.6-44.4,320.3-50.2c223.8-9.6,351.1,17.4,519,102.2l86.8,46.3l250.8-246.9l250.8-245l165.9,169.8l164,167.8l-245,245l-246.9,245l48.2,94.5c69.5,138.9,104.2,295.2,104.2,480.4c0,304.8-110,553.7-335.7,765.9C2749.6,3837.9,2419.7,3932.5,2074.3,3864.9z M2514.2,3259.1c437.9-227.7,304.8-883.6-185.2-926c-289.4-25.1-530.5,198.7-530.5,486.2c1.9,285.5,208.4,493.9,493.9,493.9C2385,3313.2,2433.2,3301.6,2514.2,3259.1z"/><path d="M7476.3,3863c-360.8-79.1-690.7-393.6-787.1-752.4c-50.2-185.2-42.4-436,17.4-615.4c28.9-83,63.7-169.8,79.1-192.9c27-38.6,17.4-52.1-218-291.3l-246.9-250.8l169.8-165.9l167.9-164l245,245l245,246.9l88.8-46.3c150.5-75.2,287.5-106.1,472.7-106.1c318.3,0,520.9,84.9,746.6,308.7c165.9,165.9,252.7,318.3,297.1,530.5c34.7,169.8,34.7,254.7,0,424.4C8630,3619.9,8060.9,3990.3,7476.3,3863z M7914.2,3272.7c115.8-52.1,189.1-123.5,243.1-239.2c162.1-343.4-106.1-731.2-484.2-700.3c-324.1,27-528.6,345.3-424.4,654C7339.3,3253.4,7655.7,3390.3,7914.2,3272.7z"/><path d="M4673.1,1721.5c-314.5-61.7-592.3-214.2-831.5-451.4c-173.6-175.6-287.5-345.3-366.6-549.8c-289.4-750.5-15.4-1583.9,659.8-2004.5C4883.4-1751.2,5875-1535.1,6365-801.9c648.2,974.3,108,2282.3-1041.8,2525.4C5163.1,1756.2,4844.8,1756.2,4673.1,1721.5z M5109.1,1233.4c13.5-7.7,28.9-61.7,36.6-121.5l13.5-110l102.2-19.3c167.9-34.7,241.2-71.4,241.2-125.4c0-73.3-57.9-247-86.8-256.6c-13.5-5.8-52.1,1.9-82.9,19.3c-83,42.5-275.9,69.5-362.7,50.2c-81-19.3-142.8-79.1-142.8-138.9c0-61.7,100.3-138.9,283.6-216.1c94.5-38.6,214.1-104.2,266.2-142.8c192.9-146.6,258.5-397.4,156.3-611.6c-56-121.5-125.4-185.2-272-254.7l-115.8-54l-5.8-115.8c-5.8-135-32.8-164-144.7-164c-119.6,0-148.6,25.1-148.6,131.2c0,50.2-7.7,100.3-15.4,113.8c-7.7,13.5-61.7,32.8-119.6,46.3c-57.9,11.6-146.6,38.6-196.8,59.8c-77.2,32.8-92.6,48.2-92.6,90.7c0,63.7,52.1,246.9,75.2,260.4c7.7,5.8,67.5-11.6,131.2-38.6c219.9-88.8,447.6-81,517,17.4c50.2,71.4,36.7,146.6-40.5,218C5068.6-92,5028.1-63,5016.5-63c-42.4,0-374.3,169.8-436,221.9c-100.3,84.9-146.6,191-146.6,337.6c1.9,204.5,110,358.8,314.5,447.6c108,46.3,117.7,57.9,117.7,183.3c0,61.7,9.6,102.2,25.1,108C4927.7,1250.8,5085.9,1250.8,5109.1,1233.4z"/><path d="M907.1,1140.8c-183.3-42.4-341.5-135-490-285.5C83.3,521.5,6.2,43.1,218.4-375.6c34.7-67.5,117.7-179.4,185.2-250.8C951.5-1193.6,1893-987.2,2165-240.5l44.4,119.6h343.4h345.3v231.5v231.5h-345.3h-343.4L2165,463.6C1979.8,978.8,1437.7,1270.1,907.1,1140.8z M1403,538.9c337.6-183.3,339.6-671.4,1.9-854.7c-175.6-94.5-328-92.6-499.7,9.6c-119.6,71.4-216.1,218-235.4,355c-30.9,235.4,142.8,484.2,382,546C1148.3,618,1296.9,594.8,1403,538.9z"/><path d="M8572.1,1140.8c-335.7-90.7-615.4-347.3-735-677.2l-44.4-121.5h-343.4h-345.4V110.6v-231.5h345.4h343.4l52.1-138.9c216.1-592.3,910.6-860.4,1483.6-573c152.4,77.2,368.5,295.2,453.4,453.4c113.8,219.9,148.6,491.9,90.7,737c-88.7,370.4-399.4,686.8-773.6,783.3C8952.2,1179.4,8711,1179.4,8572.1,1140.8z M9081.4,537c333.8-185.2,328-669.4-7.7-858.5c-364.6-202.6-808.4,129.2-717.7,536.3C8429.4,544.7,8784.3,700.9,9081.4,537z"/><path d="M3098.8-1454l-245-247l-88.8,46.3c-208.4,104.2-503.5,138.9-727.3,84.9c-279.7-67.5-574.9-302.9-698.4-557.6c-260.4-532.5-52.1-1159.5,472.7-1423.8c565.3-281.7,1223.2-30.9,1466.2,559.5c40.5,98.4,52.1,162.1,59.8,335.7c9.6,231.5-15.4,358.8-102.2,528.6l-46.3,86.8l246.9,250.8l245,250.8L3511.6-1373l-167.8,164L3098.8-1454z M2460.2-2138.9c48.2-17.4,121.5-61.7,164-102.2c322.2-312.5,111.9-850.8-331.8-850.8c-285.5,0-492,208.4-493.9,493.9C1798.5-2256.6,2130.3-2025.1,2460.2-2138.9z"/><path d="M6484.7-1378.8l-164-167.8l245-245l247-245l-46.3-90.7c-104.2-206.4-138.9-501.6-86.8-723.5c69.5-283.6,302.9-576.9,559.5-700.3c133.1-65.6,345.4-119.6,472.7-119.6c254.7,0,567.2,131.2,752.4,318.3c588.4,586.5,308.7,1580.1-501.6,1782.7c-221.9,55.9-544.1,15.4-742.8-94.5l-67.5-36.7l-250.8,247l-250.8,245L6484.7-1378.8z M7860.2-2127.4c192.9-54,343.4-260.5,343.4-470.7c-1.9-285.5-208.4-493.9-493.9-493.9c-436,0-654,528.6-343.4,837.3C7495.6-2125.4,7678.9-2077.2,7860.2-2127.4z"/><path d="M4769.5-2337.6V-2683l-123.5-42.5c-69.5-21.2-185.2-82.9-260.5-137c-546-382-600-1171.1-111.9-1630.2c335.7-318.3,816.1-387.8,1217.4-177.5c158.2,84.9,376.2,301,453.4,453.4c287.4,573,19.3,1267.5-571.1,1483.6l-140.8,52.1v343.4v345.3H5001h-231.5V-2337.6z M5147.7-3256c293.2-86.8,434.1-436,285.5-706.1c-191-341.5-673.3-341.5-864.3,0c-148.6,266.2-11.6,617.4,277.8,706.1C4960.5-3221.3,5031.9-3221.3,5147.7-3256z"/></g></g>
</svg>